<?xml version="1.0" encoding="UTF-8" standalone="no"?><!DOCTYPE svg PUBLIC "-//W3C//DTD SVG 1.1//EN" "http://www.w3.org/Graphics/SVG/1.1/DTD/svg11.dtd"><svg width="100%" height="100%" viewBox="0 0 1024 1024" version="1.1" xmlns="http://www.w3.org/2000/svg" xmlns:xlink="http://www.w3.org/1999/xlink" xml:space="preserve" xmlns:serif="http://www.serif.com/" style="fill-rule:evenodd;clip-rule:evenodd;stroke-linejoin:round;stroke-miterlimit:2;"><rect id="Icon" x="0" y="0" width="1024" height="1024" style="fill:none;"/><clipPath id="_clip1"><rect x="0" y="0" width="1024" height="1024"/></clipPath><g clip-path="url(#_clip1)"><g><path d="M128.674,51.53c19.869,-60.653 57.858,-66.005 118.719,-25.289c62,41.481 176.512,188.052 176.512,188.052l182.797,-1.247c170.351,-1.164 309.074,136.617 309.074,306.972l-0,197.001c-0,169.543 -137.437,306.981 -306.979,306.981l-193.592,-0c-169.539,-0 -306.981,-137.438 -306.981,-306.981l0,-383.197c0,-79.004 0.582,-221.64 20.45,-282.292" style="fill:#2662d9;fill-rule:nonzero;"/><circle cx="512" cy="618.519" r="35.749" style="fill:#fff;"/><circle cx="615.239" cy="618.519" r="35.749" style="fill:#fff;"/><circle cx="408.761" cy="618.519" r="35.749" style="fill:#fff;"/></g></g></svg>