<svg width="1024" height="309" viewBox="0 0 1024 309" fill="none" xmlns="http://www.w3.org/2000/svg">
<path d="M52.7676 18.2725C58.6246 0.392462 69.8236 -1.18562 87.7646 10.8174C106.015 23.028 139.699 66.1268 139.797 66.252L193.684 65.8838C243.9 65.541 284.794 106.157 284.794 156.376V214.449C284.794 264.427 244.279 304.942 194.301 304.942H137.233C87.2554 304.942 46.7393 264.427 46.7393 214.449V101.488C46.7393 78.1984 46.9107 36.1516 52.7676 18.2725ZM135.333 174.874C129.513 174.874 124.795 179.592 124.795 185.412C124.795 191.232 129.513 195.95 135.333 195.95C141.153 195.95 145.871 191.232 145.871 185.412C145.871 179.592 141.153 174.874 135.333 174.874ZM165.767 174.874C159.947 174.874 155.229 179.592 155.229 185.412C155.229 191.232 159.947 195.95 165.767 195.95C171.587 195.95 176.305 191.232 176.305 185.412C176.305 179.592 171.587 174.874 165.767 174.874ZM196.2 174.874C190.38 174.874 185.662 179.592 185.662 185.412C185.662 191.232 190.38 195.95 196.2 195.95C202.02 195.95 206.738 191.232 206.738 185.412C206.738 179.592 202.02 174.874 196.2 174.874Z" fill="#2662D9"/>
<path d="M415.015 152.739C424.51 152.739 433.149 155.229 440.932 160.211C448.715 165.192 454.903 172.08 459.495 180.875C464.087 189.669 466.383 199.593 466.383 210.645C466.383 221.697 464.087 231.62 459.495 240.415C454.903 249.21 448.715 256.098 440.932 261.079C433.149 266.06 424.51 268.551 415.015 268.551C408.321 268.551 401.939 267.228 395.868 264.581C389.797 261.935 384.427 258.199 379.757 253.374V253.841C379.757 257.421 378.473 260.534 375.905 263.18C373.336 265.827 370.184 267.15 366.448 267.15C362.868 267.15 359.755 265.827 357.109 263.18C354.462 260.534 353.139 257.421 353.139 253.841V115.614C353.139 112.034 354.462 108.92 357.109 106.274C359.755 103.628 362.868 102.305 366.448 102.305C370.184 102.305 373.336 103.628 375.905 106.274C378.473 108.92 379.757 112.034 379.757 115.614V167.916C384.427 163.09 389.797 159.354 395.868 156.708C401.939 154.062 408.321 152.739 415.015 152.739ZM409.177 244.268C414.625 244.268 419.645 242.828 424.237 239.948C428.829 237.068 432.487 233.06 435.212 227.923C437.936 222.786 439.298 217.027 439.298 210.645C439.298 204.263 437.936 198.503 435.212 193.366C432.487 188.23 428.829 184.221 424.237 181.342C419.645 178.462 414.625 177.022 409.177 177.022C403.573 177.022 398.476 178.462 393.884 181.342C389.292 184.221 385.672 188.23 383.026 193.366C380.38 198.503 379.057 204.263 379.057 210.645C379.057 217.027 380.38 222.786 383.026 227.923C385.672 233.06 389.292 237.068 393.884 239.948C398.476 242.828 403.573 244.268 409.177 244.268Z" fill="white"/>
<path d="M546.003 268.551C535.574 268.551 526.001 266.06 517.284 261.079C508.567 256.098 501.64 249.21 496.503 240.415C491.366 231.62 488.798 221.697 488.798 210.645C488.798 199.593 491.366 189.669 496.503 180.875C501.64 172.08 508.567 165.192 517.284 160.211C526.001 155.229 535.574 152.739 546.003 152.739C556.588 152.739 566.239 155.229 574.956 160.211C583.673 165.192 590.561 172.08 595.62 180.875C600.679 189.669 603.209 199.593 603.209 210.645C603.209 221.697 600.679 231.62 595.62 240.415C590.561 249.21 583.673 256.098 574.956 261.079C566.239 266.06 556.588 268.551 546.003 268.551ZM546.003 244.268C551.451 244.268 556.471 242.828 561.063 239.948C565.655 237.068 569.314 233.06 572.038 227.923C574.762 222.786 576.124 217.027 576.124 210.645C576.124 204.263 574.762 198.503 572.038 193.366C569.314 188.23 565.655 184.221 561.063 181.342C556.471 178.462 551.451 177.022 546.003 177.022C540.555 177.022 535.535 178.462 530.943 181.342C526.351 184.221 522.693 188.23 519.969 193.366C517.245 198.503 515.883 204.263 515.883 210.645C515.883 217.027 517.245 222.786 519.969 227.923C522.693 233.06 526.351 237.068 530.943 239.948C535.535 242.828 540.555 244.268 546.003 244.268Z" fill="white"/>
<path d="M707.813 254.074C707.813 256.565 707.035 258.822 705.478 260.845C703.921 262.869 701.898 264.27 699.407 265.048C693.181 267.383 686.877 268.551 680.494 268.551C673.645 268.551 667.419 267.15 661.815 264.348C656.211 261.546 651.619 257.343 648.039 251.739C644.77 247.069 642.669 242.088 641.735 236.796C640.801 231.503 640.334 224.888 640.334 216.949V180.057H627.025C623.6 180.057 620.721 178.89 618.386 176.555C616.051 174.22 614.883 171.34 614.883 167.916C614.883 164.491 616.051 161.612 618.386 159.277C620.721 156.942 623.6 155.774 627.025 155.774H640.334V131.258C640.334 127.522 641.618 124.37 644.186 121.801C646.755 119.233 649.907 117.949 653.643 117.949C657.379 117.949 660.531 119.233 663.099 121.801C665.668 124.37 666.952 127.522 666.952 131.258V155.774H691.235C694.504 155.774 697.345 156.942 699.757 159.277C702.17 161.612 703.377 164.491 703.377 167.916C703.377 171.34 702.17 174.22 699.757 176.555C697.345 178.89 694.504 180.057 691.235 180.057H666.952V222.786C666.952 230.881 668.586 236.64 671.855 240.065C674.657 243.022 678.393 244.501 683.063 244.501C686.332 244.501 689.678 243.956 693.103 242.867C694.66 242.555 695.671 242.4 696.138 242.4C699.252 242.4 701.976 243.528 704.311 245.785C706.645 248.042 707.813 250.805 707.813 254.074Z" fill="white"/>
<path d="M789.768 152.739C793.349 152.739 796.423 154.023 798.991 156.591C801.56 159.16 802.844 162.234 802.844 165.814C802.844 169.395 801.56 172.508 798.991 175.154C796.423 177.8 793.349 179.123 789.768 179.123C778.405 179.123 769.883 182.159 764.201 188.23C758.52 194.3 755.679 204.185 755.679 217.883V254.074C755.679 257.654 754.356 260.729 751.709 263.297C749.063 265.866 745.95 267.15 742.37 267.15C738.789 267.15 735.715 265.866 733.147 263.297C730.578 260.729 729.294 257.654 729.294 254.074V167.215C729.294 163.635 730.578 160.561 733.147 157.992C735.715 155.424 738.789 154.14 742.37 154.14C745.95 154.14 749.063 155.424 751.709 157.992C754.356 160.561 755.679 163.635 755.679 167.215V168.383C759.415 163.402 764.201 159.549 770.038 156.825C775.876 154.101 782.452 152.739 789.768 152.739Z" fill="white"/>
<path d="M839.035 141.298C834.832 141.298 831.213 139.819 828.178 136.861C825.142 133.904 823.625 130.168 823.625 125.654C823.625 120.984 825.142 117.17 828.178 114.213C831.213 111.255 834.832 109.776 839.035 109.776C843.394 109.776 847.091 111.255 850.126 114.213C853.161 117.17 854.679 120.984 854.679 125.654C854.679 130.168 853.161 133.904 850.126 136.861C847.091 139.819 843.394 141.298 839.035 141.298ZM839.035 267.15C835.455 267.15 832.342 265.827 829.696 263.18C827.049 260.534 825.726 257.421 825.726 253.841V167.449C825.726 163.713 827.049 160.561 829.696 157.992C832.342 155.424 835.455 154.14 839.035 154.14C842.771 154.14 845.923 155.424 848.492 157.992C851.06 160.561 852.344 163.713 852.344 167.449V253.841C852.344 257.421 851.06 260.534 848.492 263.18C845.923 265.827 842.771 267.15 839.035 267.15Z" fill="white"/>
<path d="M936.635 268.551C926.205 268.551 916.632 266.06 907.915 261.079C899.198 256.098 892.271 249.21 887.134 240.415C881.998 231.62 879.429 221.697 879.429 210.645C879.429 199.593 881.998 189.669 887.134 180.875C892.271 172.08 899.198 165.192 907.915 160.211C916.632 155.229 926.205 152.739 936.635 152.739C950.333 152.739 962.163 156.786 972.125 164.88C973.682 165.97 974.927 167.371 975.861 169.083C976.795 170.796 977.262 172.663 977.262 174.687C977.262 178.112 976.056 181.069 973.643 183.56C971.23 186.05 968.234 187.296 964.654 187.296C961.852 187.296 959.283 186.362 956.948 184.494C951.189 179.513 944.418 177.022 936.635 177.022C931.187 177.022 926.166 178.462 921.574 181.342C916.982 184.221 913.324 188.23 910.6 193.366C907.876 198.503 906.514 204.263 906.514 210.645C906.514 217.027 907.876 222.786 910.6 227.923C913.324 233.06 916.982 237.068 921.574 239.948C926.166 242.828 931.187 244.268 936.635 244.268C944.418 244.268 951.189 241.777 956.948 236.796C959.283 234.928 961.852 233.994 964.654 233.994C968.078 233.994 970.997 235.2 973.41 237.613C975.822 240.026 977.029 242.944 977.029 246.369C977.029 250.572 975.394 253.919 972.125 256.409C962.163 264.504 950.333 268.551 936.635 268.551Z" fill="white"/>
</svg>
