<svg width="397" height="101" viewBox="0 0 397 101" fill="none" xmlns="http://www.w3.org/2000/svg">
<path d="M0.00864536 20.2737C-0.191186 14.1269 3.072 12.3903 9.92474 14.0716C16.9055 15.7838 32.1045 25.2813 32.1045 25.2813L48.6143 19.1449C64.0008 13.4253 81.102 21.3286 86.7161 36.7536L93.208 54.5908C98.7955 69.9419 90.8805 86.9158 75.5293 92.5031L58.0009 98.8829C42.6499 104.47 25.676 96.5552 20.0887 81.2042C20.0887 81.2042 10.064 53.6614 7.46029 46.5077C4.85657 39.354 0.208477 26.4203 0.00864536 20.2737Z" fill="#FADF70"/>
<path d="M12.9563 4.96519C14.8707 -0.879081 18.5311 -1.39468 24.3954 2.52847C30.3696 6.5254 41.4034 20.6484 41.4034 20.6484L59.017 20.5281C75.4312 20.416 88.7979 33.692 88.7979 50.1067V69.0888C88.7979 85.4252 75.5551 98.6681 59.2188 98.6681H40.5651C24.229 98.6681 10.9858 85.4252 10.9858 69.0888V32.1656C10.9858 24.5531 11.0417 10.8094 12.9563 4.96519Z" fill="#2662D9"/>
<path d="M49.8917 63.0425C51.7941 63.0425 53.3363 61.5003 53.3363 59.5979C53.3363 57.6955 51.7941 56.1533 49.8917 56.1533C47.9893 56.1533 46.4471 57.6955 46.4471 59.5979C46.4471 61.5003 47.9893 63.0425 49.8917 63.0425Z" fill="white"/>
<path d="M59.8396 63.0425C61.7419 63.0425 63.2841 61.5003 63.2841 59.5979C63.2841 57.6955 61.7419 56.1533 59.8396 56.1533C57.9372 56.1533 56.395 57.6955 56.395 59.5979C56.395 61.5003 57.9372 63.0425 59.8396 63.0425Z" fill="white"/>
<path d="M39.9442 63.0425C41.8466 63.0425 43.3888 61.5003 43.3888 59.5979C43.3888 57.6955 41.8466 56.1533 39.9442 56.1533C38.0418 56.1533 36.4996 57.6955 36.4996 59.5979C36.4996 61.5003 38.0418 63.0425 39.9442 63.0425Z" fill="white"/>
<path d="M148.5 42.2C152.433 42.2 156.033 43.2667 159.3 45.4C162.633 47.5333 165.233 50.5 167.1 54.3C169.033 58.0333 170 62.2333 170 66.9C170 71.5667 169.033 75.8 167.1 79.6C165.233 83.3333 162.633 86.2667 159.3 88.4C156.033 90.5333 152.433 91.6 148.5 91.6C145.833 91.6 143.3 91.1 140.9 90.1C138.5 89.1 136.333 87.7 134.4 85.9C134.067 87.3667 133.3 88.6 132.1 89.6C130.9 90.5333 129.533 91 128 91C126.2 91 124.633 90.3667 123.3 89.1C122.033 87.7667 121.4 86.2 121.4 84.4V27C121.4 25.2 122.033 23.6667 123.3 22.4C124.633 21.0667 126.2 20.4 128 20.4C129.8 20.4 131.333 21.0667 132.6 22.4C133.933 23.6667 134.6 25.2 134.6 27V47.8C136.467 46 138.567 44.6333 140.9 43.7C143.3 42.7 145.833 42.2 148.5 42.2ZM145.4 79.6C148.533 79.6 151.167 78.4 153.3 76C155.5 73.6 156.6 70.5667 156.6 66.9C156.6 63.2333 155.5 60.2 153.3 57.8C151.167 55.4 148.533 54.2 145.4 54.2C142.267 54.2 139.6 55.4 137.4 57.8C135.267 60.2 134.2 63.2333 134.2 66.9C134.2 70.5667 135.267 73.6 137.4 76C139.6 78.4 142.267 79.6 145.4 79.6ZM203.77 91.6C199.237 91.6 195.104 90.5333 191.37 88.4C187.637 86.2667 184.67 83.3333 182.47 79.6C180.27 75.8 179.17 71.5667 179.17 66.9C179.17 62.2333 180.27 58.0333 182.47 54.3C184.67 50.5 187.637 47.5333 191.37 45.4C195.104 43.2667 199.237 42.2 203.77 42.2C208.304 42.2 212.437 43.2667 216.17 45.4C219.904 47.5333 222.87 50.5 225.07 54.3C227.27 58.0333 228.37 62.2333 228.37 66.9C228.37 71.5667 227.27 75.8 225.07 79.6C222.87 83.3333 219.904 86.2667 216.17 88.4C212.437 90.5333 208.304 91.6 203.77 91.6ZM203.77 79.6C206.904 79.6 209.537 78.4 211.67 76C213.87 73.6 214.97 70.5667 214.97 66.9C214.97 63.2333 213.87 60.2 211.67 57.8C209.537 55.4 206.904 54.2 203.77 54.2C200.637 54.2 197.97 55.4 195.77 57.8C193.637 60.2 192.57 63.2333 192.57 66.9C192.57 70.5667 193.637 73.6 195.77 76C197.97 78.4 200.637 79.6 203.77 79.6ZM273.841 84.7C273.841 85.9 273.441 87 272.641 88C271.908 88.9333 270.908 89.6333 269.641 90.1C267.041 91.1 264.375 91.6 261.641 91.6C258.375 91.6 255.375 90.9 252.641 89.5C249.975 88.0333 247.875 85.8667 246.341 83C245.208 80.8667 244.475 78.7333 244.141 76.6C243.875 74.4667 243.741 71.6333 243.741 68.1V55.4H238.941C237.275 55.4 235.841 54.8333 234.641 53.7C233.508 52.5 232.941 51.0667 232.941 49.4C232.941 47.7333 233.508 46.3333 234.641 45.2C235.841 44 237.275 43.4 238.941 43.4H243.741V33.6C243.741 31.8 244.375 30.2667 245.641 29C246.975 27.6667 248.541 27 250.341 27C252.208 27 253.775 27.6667 255.041 29C256.308 30.2667 256.941 31.8 256.941 33.6V43.4H265.941C267.608 43.4 269.008 44 270.141 45.2C271.341 46.3333 271.941 47.7333 271.941 49.4C271.941 51.0667 271.341 52.5 270.141 53.7C269.008 54.8333 267.608 55.4 265.941 55.4H256.941V71.4C256.941 74.2 257.541 76.3667 258.741 77.9C259.675 79.1667 261.108 79.8 263.041 79.8C264.175 79.8 265.375 79.6 266.641 79.2C267.308 79.0667 267.808 79 268.141 79C269.675 79 271.008 79.5667 272.141 80.7C273.275 81.7667 273.841 83.1 273.841 84.7ZM310.016 42.2C311.816 42.2 313.35 42.8333 314.616 44.1C315.883 45.3667 316.516 46.9 316.516 48.7C316.516 50.5 315.883 52.0333 314.616 53.3C313.35 54.5667 311.816 55.2 310.016 55.2C305.083 55.2 301.483 56.4667 299.216 59C296.95 61.4667 295.816 65.8 295.816 72V84.5C295.816 86.2333 295.183 87.7667 293.916 89.1C292.65 90.3667 291.116 91 289.316 91C287.516 91 285.983 90.3667 284.716 89.1C283.45 87.8333 282.816 86.3 282.816 84.5V49.3C282.816 47.5 283.45 45.9667 284.716 44.7C285.983 43.4333 287.516 42.8 289.316 42.8C290.983 42.8 292.416 43.3333 293.616 44.4C294.816 45.4667 295.516 46.8 295.716 48.4C299.183 44.2667 303.95 42.2 310.016 42.2ZM332.592 37.8C330.526 37.8 328.759 37.1 327.292 35.7C325.826 34.2333 325.092 32.4 325.092 30.2C325.092 28 325.826 26.2 327.292 24.8C328.759 23.3333 330.526 22.6 332.592 22.6C334.659 22.6 336.426 23.3333 337.892 24.8C339.359 26.2 340.092 28 340.092 30.2C340.092 32.4 339.359 34.2333 337.892 35.7C336.426 37.1 334.659 37.8 332.592 37.8ZM332.592 91C330.792 91 329.226 90.3667 327.892 89.1C326.626 87.7667 325.992 86.2 325.992 84.4V49.4C325.992 47.6 326.626 46.0667 327.892 44.8C329.226 43.4667 330.792 42.8 332.592 42.8C334.392 42.8 335.926 43.4667 337.192 44.8C338.526 46.0667 339.192 47.6 339.192 49.4V84.4C339.192 86.2 338.526 87.7667 337.192 89.1C335.926 90.3667 334.392 91 332.592 91ZM374.864 91.6C370.331 91.6 366.197 90.5333 362.464 88.4C358.731 86.2667 355.764 83.3333 353.564 79.6C351.364 75.8 350.264 71.5667 350.264 66.9C350.264 62.2333 351.364 58.0333 353.564 54.3C355.764 50.5 358.731 47.5333 362.464 45.4C366.197 43.2667 370.331 42.2 374.864 42.2C380.264 42.2 385.164 43.7667 389.564 46.9C390.364 47.4333 390.964 48.1667 391.364 49.1C391.831 49.9667 392.064 50.9 392.064 51.9C392.064 53.5667 391.464 55 390.264 56.2C389.064 57.4 387.631 58 385.964 58C384.564 58 383.331 57.5667 382.264 56.7C379.997 55.0333 377.531 54.2 374.864 54.2C371.731 54.2 369.064 55.4 366.864 57.8C364.731 60.2 363.664 63.2333 363.664 66.9C363.664 70.5667 364.731 73.6 366.864 76C369.064 78.4 371.731 79.6 374.864 79.6C377.531 79.6 379.997 78.7667 382.264 77.1C383.331 76.2333 384.564 75.8 385.964 75.8C387.631 75.8 389.064 76.4 390.264 77.6C391.464 78.8 392.064 80.2333 392.064 81.9C392.064 82.9 391.831 83.8667 391.364 84.8C390.964 85.6667 390.364 86.3667 389.564 86.9C385.164 90.0333 380.264 91.6 374.864 91.6Z" fill="#0A0A0A"/>
</svg>
