<?xml version="1.0" encoding="UTF-8" standalone="no"?><!DOCTYPE svg PUBLIC "-//W3C//DTD SVG 1.1//EN" "http://www.w3.org/Graphics/SVG/1.1/DTD/svg11.dtd"><svg width="100%" height="100%" viewBox="0 0 1024 309" version="1.1" xmlns="http://www.w3.org/2000/svg" xmlns:xlink="http://www.w3.org/1999/xlink" xml:space="preserve" xmlns:serif="http://www.serif.com/" style="fill-rule:evenodd;clip-rule:evenodd;stroke-linejoin:round;stroke-miterlimit:2;"><rect id="Light" x="0" y="0.012" width="1024" height="308" style="fill:none;"/><g id="Layer-1" serif:id="Layer 1"></g><g><g><path d="M52.767,18.272c5.857,-17.88 17.056,-19.458 34.997,-7.455c18.277,12.228 52.033,55.435 52.033,55.435l53.886,-0.368c50.217,-0.343 91.111,40.273 91.111,90.492l-0,58.073c-0,49.978 -40.515,90.493 -90.493,90.493l-57.068,0c-49.978,0 -90.494,-40.515 -90.494,-90.493l-0,-112.961c-0,-23.29 0.171,-65.337 6.028,-83.216" style="fill:#2662d9;fill-rule:nonzero;"/><circle cx="165.766" cy="185.412" r="10.538" style="fill:#fff;"/><circle cx="196.2" cy="185.412" r="10.538" style="fill:#fff;"/><circle cx="135.333" cy="185.412" r="10.538" style="fill:#fff;"/></g><g><path d="M415.014,152.739c9.495,-0 18.134,2.49 25.917,7.472c7.783,4.981 13.971,11.869 18.563,20.664c4.592,8.794 6.888,18.718 6.888,29.77c-0,11.052 -2.296,20.975 -6.888,29.77c-4.592,8.795 -10.78,15.683 -18.563,20.664c-7.783,4.981 -16.422,7.472 -25.917,7.472c-6.694,-0 -13.076,-1.323 -19.147,-3.97c-6.071,-2.646 -11.441,-6.382 -16.111,-11.207l0,0.467c0,3.58 -1.284,6.693 -3.852,9.339c-2.569,2.647 -5.721,3.97 -9.457,3.97c-3.58,-0 -6.693,-1.323 -9.339,-3.97c-2.647,-2.646 -3.97,-5.759 -3.97,-9.339l0,-138.227c0,-3.58 1.323,-6.694 3.97,-9.34c2.646,-2.646 5.759,-3.969 9.339,-3.969c3.736,-0 6.888,1.323 9.457,3.969c2.568,2.646 3.852,5.76 3.852,9.34l0,52.302c4.67,-4.826 10.04,-8.562 16.111,-11.208c6.071,-2.646 12.453,-3.969 19.147,-3.969Zm-5.838,91.529c5.448,-0 10.468,-1.44 15.06,-4.32c4.592,-2.88 8.25,-6.888 10.975,-12.025c2.724,-5.137 4.086,-10.896 4.086,-17.278c-0,-6.382 -1.362,-12.142 -4.086,-17.279c-2.725,-5.136 -6.383,-9.145 -10.975,-12.024c-4.592,-2.88 -9.612,-4.32 -15.06,-4.32c-5.604,0 -10.701,1.44 -15.293,4.32c-4.592,2.879 -8.212,6.888 -10.858,12.024c-2.646,5.137 -3.969,10.897 -3.969,17.279c-0,6.382 1.323,12.141 3.969,17.278c2.646,5.137 6.266,9.145 10.858,12.025c4.592,2.88 9.689,4.32 15.293,4.32Z" style="fill:#0a0a0a;fill-rule:nonzero;"/><path d="M546.002,268.551c-10.429,-0 -20.002,-2.491 -28.719,-7.472c-8.717,-4.981 -15.644,-11.869 -20.781,-20.664c-5.137,-8.795 -7.705,-18.718 -7.705,-29.77c-0,-11.052 2.568,-20.976 7.705,-29.77c5.137,-8.795 12.064,-15.683 20.781,-20.664c8.717,-4.982 18.29,-7.472 28.719,-7.472c10.585,-0 20.236,2.49 28.953,7.472c8.717,4.981 15.605,11.869 20.664,20.664c5.059,8.794 7.589,18.718 7.589,29.77c-0,11.052 -2.53,20.975 -7.589,29.77c-5.059,8.795 -11.947,15.683 -20.664,20.664c-8.717,4.981 -18.368,7.472 -28.953,7.472Zm0,-24.283c5.448,-0 10.468,-1.44 15.06,-4.32c4.592,-2.88 8.251,-6.888 10.975,-12.025c2.724,-5.137 4.086,-10.896 4.086,-17.278c-0,-6.382 -1.362,-12.142 -4.086,-17.279c-2.724,-5.136 -6.383,-9.145 -10.975,-12.024c-4.592,-2.88 -9.612,-4.32 -15.06,-4.32c-5.448,0 -10.468,1.44 -15.06,4.32c-4.592,2.879 -8.25,6.888 -10.974,12.024c-2.724,5.137 -4.086,10.897 -4.086,17.279c-0,6.382 1.362,12.141 4.086,17.278c2.724,5.137 6.382,9.145 10.974,12.025c4.592,2.88 9.612,4.32 15.06,4.32Z" style="fill:#0a0a0a;fill-rule:nonzero;"/><path d="M707.812,254.074c-0,2.491 -0.778,4.748 -2.335,6.771c-1.557,2.024 -3.58,3.425 -6.071,4.203c-6.226,2.335 -12.53,3.503 -18.913,3.503c-6.849,-0 -13.075,-1.401 -18.679,-4.203c-5.604,-2.802 -10.196,-7.005 -13.776,-12.609c-3.269,-4.67 -5.37,-9.651 -6.304,-14.943c-0.934,-5.293 -1.401,-11.908 -1.401,-19.847l-0,-36.892l-13.309,0c-3.425,0 -6.304,-1.167 -8.639,-3.502c-2.335,-2.335 -3.503,-5.215 -3.503,-8.639c0,-3.425 1.168,-6.304 3.503,-8.639c2.335,-2.335 5.214,-3.503 8.639,-3.503l13.309,0l-0,-24.516c-0,-3.736 1.284,-6.888 3.852,-9.457c2.569,-2.568 5.721,-3.852 9.457,-3.852c3.736,-0 6.888,1.284 9.456,3.852c2.569,2.569 3.853,5.721 3.853,9.457l-0,24.516l24.283,0c3.269,0 6.11,1.168 8.522,3.503c2.413,2.335 3.62,5.214 3.62,8.639c-0,3.424 -1.207,6.304 -3.62,8.639c-2.412,2.335 -5.253,3.502 -8.522,3.502l-24.283,0l-0,42.729c-0,8.095 1.634,13.854 4.903,17.279c2.802,2.957 6.538,4.436 11.208,4.436c3.269,0 6.615,-0.545 10.04,-1.634c1.557,-0.312 2.568,-0.467 3.035,-0.467c3.114,-0 5.838,1.128 8.173,3.385c2.334,2.257 3.502,5.02 3.502,8.289Z" style="fill:#0a0a0a;fill-rule:nonzero;"/><path d="M789.767,152.739c3.581,-0 6.655,1.284 9.223,3.852c2.569,2.569 3.853,5.643 3.853,9.223c-0,3.581 -1.284,6.694 -3.853,9.34c-2.568,2.646 -5.642,3.969 -9.223,3.969c-11.363,0 -19.885,3.036 -25.567,9.107c-5.681,6.07 -8.522,15.955 -8.522,29.653l-0,36.191c-0,3.58 -1.323,6.655 -3.97,9.223c-2.646,2.569 -5.759,3.853 -9.339,3.853c-3.581,-0 -6.655,-1.284 -9.223,-3.853c-2.569,-2.568 -3.853,-5.643 -3.853,-9.223l0,-86.859c0,-3.58 1.284,-6.654 3.853,-9.223c2.568,-2.568 5.642,-3.852 9.223,-3.852c3.58,-0 6.693,1.284 9.339,3.852c2.647,2.569 3.97,5.643 3.97,9.223l-0,1.168c3.736,-4.981 8.522,-8.834 14.359,-11.558c5.838,-2.724 12.414,-4.086 19.73,-4.086Z" style="fill:#0a0a0a;fill-rule:nonzero;"/><path d="M839.034,141.298c-4.203,-0 -7.822,-1.479 -10.857,-4.437c-3.036,-2.957 -4.553,-6.693 -4.553,-11.207c-0,-4.67 1.517,-8.484 4.553,-11.441c3.035,-2.958 6.654,-4.437 10.857,-4.437c4.359,0 8.056,1.479 11.091,4.437c3.035,2.957 4.553,6.771 4.553,11.441c0,4.514 -1.518,8.25 -4.553,11.207c-3.035,2.958 -6.732,4.437 -11.091,4.437Zm0,125.852c-3.58,-0 -6.693,-1.323 -9.339,-3.97c-2.647,-2.646 -3.97,-5.759 -3.97,-9.339l0,-86.392c0,-3.736 1.323,-6.888 3.97,-9.457c2.646,-2.568 5.759,-3.852 9.339,-3.852c3.736,-0 6.888,1.284 9.457,3.852c2.568,2.569 3.852,5.721 3.852,9.457l0,86.392c0,3.58 -1.284,6.693 -3.852,9.339c-2.569,2.647 -5.721,3.97 -9.457,3.97Z" style="fill:#0a0a0a;fill-rule:nonzero;"/><path d="M936.634,268.551c-10.43,-0 -20.003,-2.491 -28.72,-7.472c-8.717,-4.981 -15.644,-11.869 -20.781,-20.664c-5.136,-8.795 -7.705,-18.718 -7.705,-29.77c0,-11.052 2.569,-20.976 7.705,-29.77c5.137,-8.795 12.064,-15.683 20.781,-20.664c8.717,-4.982 18.29,-7.472 28.72,-7.472c13.698,-0 25.528,4.047 35.49,12.141c1.557,1.09 2.802,2.491 3.736,4.203c0.934,1.713 1.401,3.58 1.401,5.604c0,3.425 -1.206,6.382 -3.619,8.873c-2.413,2.49 -5.409,3.736 -8.989,3.736c-2.802,-0 -5.371,-0.934 -7.706,-2.802c-5.759,-4.981 -12.53,-7.472 -20.313,-7.472c-5.448,0 -10.469,1.44 -15.061,4.32c-4.592,2.879 -8.25,6.888 -10.974,12.024c-2.724,5.137 -4.086,10.897 -4.086,17.279c0,6.382 1.362,12.141 4.086,17.278c2.724,5.137 6.382,9.145 10.974,12.025c4.592,2.88 9.613,4.32 15.061,4.32c7.783,-0 14.554,-2.491 20.313,-7.472c2.335,-1.868 4.904,-2.802 7.706,-2.802c3.424,-0 6.343,1.206 8.756,3.619c2.412,2.413 3.619,5.331 3.619,8.756c-0,4.203 -1.635,7.55 -4.904,10.04c-9.962,8.095 -21.792,12.142 -35.49,12.142Z" style="fill:#0a0a0a;fill-rule:nonzero;"/></g></g></svg>